<svg width="32" height="31" viewBox="0 0 32 31" fill="none" xmlns="http://www.w3.org/2000/svg">
<g clip-path="url(#clip0)">
<path d="M31.4699 9.11409C31.3973 7.46694 31.1309 6.33454 30.7493 5.3533C30.3557 4.31173 29.7501 3.37922 28.9567 2.60402C28.1815 1.81676 27.2428 1.20502 26.2133 0.817543C25.2264 0.435975 24.0999 0.169612 22.4528 0.0969885C20.7933 0.0182149 20.2665 0 16.0577 0C11.8489 0 11.3221 0.0182149 9.66876 0.0908381C8.02162 0.163461 6.88922 0.430061 5.90821 0.811392C4.86642 1.20502 3.93391 1.81061 3.15871 2.60402C2.37145 3.37922 1.75995 4.31788 1.37223 5.34738C0.990663 6.33454 0.724299 7.46079 0.651676 9.10793C0.572902 10.7674 0.554688 11.2942 0.554688 15.503C0.554688 19.7119 0.572902 20.2387 0.645525 21.892C0.718149 23.5391 0.984749 24.6715 1.36632 25.6528C1.75995 26.6943 2.37145 27.6268 3.15871 28.402C3.93391 29.1893 4.87257 29.801 5.90206 30.1885C6.88922 30.5701 8.01547 30.8364 9.66285 30.9091C11.3159 30.9819 11.843 30.9999 16.0518 30.9999C20.2606 30.9999 20.7874 30.9819 22.4407 30.9091C24.0879 30.8364 25.2203 30.5701 26.2013 30.1885C28.2846 29.383 29.9318 27.7359 30.7373 25.6528C31.1186 24.6656 31.3852 23.5391 31.4578 21.892C31.5304 20.2387 31.5487 19.7119 31.5487 15.503C31.5487 11.2942 31.5425 10.7674 31.4699 9.11409ZM28.6783 21.7709C28.6116 23.2848 28.3573 24.1024 28.1453 24.6474C27.6244 25.9979 26.5526 27.0697 25.2021 27.5906C24.657 27.8026 23.8336 28.0569 22.3255 28.1234C20.6904 28.1962 20.2001 28.2142 16.0639 28.2142C11.9277 28.2142 11.4311 28.1962 9.80195 28.1234C8.28798 28.0569 7.47044 27.8026 6.92541 27.5906C6.25335 27.3423 5.64161 26.9486 5.14508 26.4339C4.63033 25.9312 4.2367 25.3256 3.98832 24.6535C3.77636 24.1085 3.52206 23.2848 3.45559 21.777C3.38273 20.1419 3.36475 19.6513 3.36475 15.5151C3.36475 11.3789 3.38273 10.8824 3.45559 9.25342C3.52206 7.73945 3.77636 6.92191 3.98832 6.37688C4.2367 5.70458 4.63033 5.09308 5.15123 4.59631C5.65368 4.08156 6.25927 3.68793 6.93156 3.43978C7.47659 3.22783 8.30028 2.97353 9.8081 2.90682C11.4432 2.83419 11.9338 2.81598 16.0698 2.81598C20.2121 2.81598 20.7025 2.83419 22.3317 2.90682C23.8456 2.97353 24.6632 3.22783 25.2082 3.43978C25.8803 3.68793 26.492 4.08156 26.9885 4.59631C27.5033 5.099 27.8969 5.70458 28.1453 6.37688C28.3573 6.92191 28.6116 7.74536 28.6783 9.25342C28.7509 10.8885 28.7691 11.3789 28.7691 15.5151C28.7691 19.6513 28.7509 20.1358 28.6783 21.7709Z" fill="#181818"/>
<path d="M16.0572 7.53943C11.6608 7.53943 8.09375 11.1062 8.09375 15.5029C8.09375 19.8996 11.6608 23.4664 16.0572 23.4664C20.4539 23.4664 24.0207 19.8996 24.0207 15.5029C24.0207 11.1062 20.4539 7.53943 16.0572 7.53943ZM16.0572 20.6686C13.205 20.6686 10.8915 18.3553 10.8915 15.5029C10.8915 12.6505 13.205 10.3372 16.0572 10.3372C18.9096 10.3372 21.2229 12.6505 21.2229 15.5029C21.2229 18.3553 18.9096 20.6686 16.0572 20.6686V20.6686Z" fill="#181818"/>
<path d="M26.195 7.22471C26.195 8.25137 25.3626 9.08382 24.3357 9.08382C23.309 9.08382 22.4766 8.25137 22.4766 7.22471C22.4766 6.19781 23.309 5.3656 24.3357 5.3656C25.3626 5.3656 26.195 6.19781 26.195 7.22471V7.22471Z" fill="#181818"/>
</g>
<defs>
<clipPath id="clip0">
<rect width="31" height="31" fill="white" transform="translate(0.5)"/>
</clipPath>
</defs>
</svg>
