<svg width="45" height="56" viewBox="0 0 45 56" fill="none" xmlns="http://www.w3.org/2000/svg">
<g opacity="0.3" clip-path="url(#clip0)">
<path d="M18.0102 5.59985H8.28859C6.81019 5.59985 5.60059 6.80945 5.60059 8.28785V18.0095C5.60059 19.4879 6.81019 20.6975 8.28859 20.6975H18.0102C19.4886 20.6975 20.6982 19.4879 20.6982 18.0095V8.28785C20.6982 6.80945 19.4886 5.59985 18.0102 5.59985Z" fill="black"/>
<path d="M26.7905 6.59985H36.5121C37.4383 6.59985 38.2001 7.36174 38.2001 8.28785V18.0095C38.2001 18.9356 37.4383 19.6975 36.5121 19.6975H26.7905C25.8644 19.6975 25.1025 18.9356 25.1025 18.0095V8.28785C25.1025 7.36174 25.8644 6.59985 26.7905 6.59985Z" stroke="black" stroke-width="2"/>
<path d="M8.28859 25.1025H18.0102C18.9363 25.1025 19.6982 25.8644 19.6982 26.7905V36.5121C19.6982 37.4383 18.9363 38.2001 18.0102 38.2001H8.28859C7.36247 38.2001 6.60059 37.4383 6.60059 36.5121V26.7905C6.60059 25.8644 7.36247 25.1025 8.28859 25.1025Z" stroke="black" stroke-width="2"/>
<path d="M26.7905 25.1025H36.5121C37.4383 25.1025 38.2001 25.8644 38.2001 26.7905V36.5121C38.2001 37.4383 37.4383 38.2001 36.5121 38.2001H26.7905C25.8644 38.2001 25.1025 37.4383 25.1025 36.5121V26.7905C25.1025 25.8644 25.8644 25.1025 26.7905 25.1025Z" stroke="black" stroke-width="2"/>
</g>
<defs>
<clipPath id="clip0">
<rect width="44.8" height="56" fill="white"/>
</clipPath>
</defs>
</svg>
