<svg width="16" height="20" viewBox="0 0 16 20" fill="none" xmlns="http://www.w3.org/2000/svg">
<path d="M4.57192 19.3327L1.14335 19.3327C0.840241 19.3327 0.549551 19.2433 0.335224 19.0842C0.120896 18.925 0.000488281 18.7092 0.000488281 18.4842L0.000488281 1.5145C0.000488281 1.28947 0.120896 1.07365 0.335224 0.914531C0.549551 0.755409 0.840241 0.666016 1.14335 0.666016L4.57192 0.666016C4.87502 0.666016 5.16571 0.755409 5.38004 0.914531C5.59437 1.07365 5.71477 1.28947 5.71477 1.5145L5.71477 18.4842C5.71477 18.7092 5.59437 18.925 5.38004 19.0842C5.16571 19.2433 4.87502 19.3327 4.57192 19.3327ZM14.8576 19.3327L11.4291 19.3327C11.126 19.3327 10.8353 19.2433 10.6209 19.0842C10.4066 18.925 10.2862 18.7092 10.2862 18.4842L10.2862 1.5145C10.2862 1.28947 10.4066 1.07365 10.6209 0.914531C10.8353 0.755409 11.126 0.666016 11.4291 0.666016L14.8576 0.666016C15.1607 0.666016 15.4514 0.755409 15.6658 0.914531C15.8801 1.07365 16.0005 1.28947 16.0005 1.5145L16.0005 18.4842C16.0005 18.7092 15.8801 18.925 15.6658 19.0842C15.4514 19.2433 15.1607 19.3327 14.8576 19.3327Z" fill="white"/>
</svg>
