<svg width="40" height="40" viewBox="0 0 40 40" fill="none" xmlns="http://www.w3.org/2000/svg">
<path d="M16.5714 29.3327L13.1429 29.3327C12.8398 29.3327 12.5491 29.2433 12.3347 29.0842C12.1204 28.925 12 28.7092 12 28.4842L12 11.5145C12 11.2895 12.1204 11.0737 12.3347 10.9145C12.5491 10.7554 12.8398 10.666 13.1429 10.666L16.5714 10.666C16.8745 10.666 17.1652 10.7554 17.3795 10.9145C17.5939 11.0737 17.7143 11.2895 17.7143 11.5145L17.7143 28.4842C17.7143 28.7092 17.5939 28.925 17.3795 29.0842C17.1652 29.2433 16.8745 29.3327 16.5714 29.3327ZM26.8571 29.3327L23.4286 29.3327C23.1255 29.3327 22.8348 29.2433 22.6204 29.0842C22.4061 28.925 22.2857 28.7092 22.2857 28.4842L22.2857 11.5145C22.2857 11.2895 22.4061 11.0737 22.6204 10.9145C22.8348 10.7554 23.1255 10.666 23.4286 10.666L26.8571 10.666C27.1602 10.666 27.4509 10.7554 27.6653 10.9145C27.8796 11.0737 28 11.2895 28 11.5145L28 28.4842C28 28.7092 27.8796 28.925 27.6653 29.0842C27.4509 29.2433 27.1602 29.3327 26.8571 29.3327Z" fill="black"/>
</svg>
