<svg width="20" height="24" viewBox="0 0 20 24" fill="none" xmlns="http://www.w3.org/2000/svg">
<path d="M2.31032 24C1.92653 23.9993 1.54954 23.8943 1.21642 23.6954C0.466315 23.252 0 22.3911 0 21.4565V2.54358C0 1.60641 0.466315 0.748155 1.21642 0.304679C1.55747 0.100182 1.94491 -0.0049813 2.33824 0.000181328C2.73157 0.00534396 3.11635 0.120643 3.45236 0.334027L18.9451 10.0096C19.268 10.2209 19.5342 10.5142 19.7187 10.8621C19.9032 11.21 20 11.6011 20 11.9988C20 12.3964 19.9032 12.7875 19.7187 13.1354C19.5342 13.4833 19.268 13.7766 18.9451 13.9879L3.44986 23.6661C3.10599 23.883 2.71214 23.9984 2.31032 24Z" fill="white"/>
</svg>
