<svg width="16" height="20" viewBox="0 0 16 20" fill="none" xmlns="http://www.w3.org/2000/svg">
<path d="M4.5717 19.3327L1.14313 19.3327C0.840027 19.3327 0.549337 19.2434 0.33501 19.0842C0.120683 18.9251 0.000274658 18.7093 0.000274658 18.4843L0.000274658 1.51456C0.000274658 1.28953 0.120683 1.07371 0.33501 0.914592C0.549337 0.755471 0.840027 0.666077 1.14313 0.666077L4.5717 0.666077C4.87481 0.666077 5.1655 0.755471 5.37982 0.914592C5.59415 1.07371 5.71456 1.28953 5.71456 1.51456L5.71456 18.4843C5.71456 18.7093 5.59415 18.9251 5.37982 19.0842C5.1655 19.2434 4.87481 19.3327 4.5717 19.3327ZM14.8574 19.3327L11.4288 19.3327C11.1257 19.3327 10.835 19.2434 10.6207 19.0842C10.4064 18.9251 10.286 18.7093 10.286 18.4843L10.286 1.51456C10.286 1.28953 10.4064 1.07371 10.6207 0.914592C10.835 0.755471 11.1257 0.666077 11.4288 0.666077L14.8574 0.666077C15.1605 0.666077 15.4512 0.755471 15.6655 0.914592C15.8799 1.07371 16.0003 1.28953 16.0003 1.51456L16.0003 18.4843C16.0003 18.7093 15.8799 18.9251 15.6655 19.0842C15.4512 19.2434 15.1605 19.3327 14.8574 19.3327Z" fill="black"/>
</svg>
