<svg width="38" height="38" viewBox="0 0 38 38" fill="none" xmlns="http://www.w3.org/2000/svg">
<g opacity="0.3" clip-path="url(#clip0)">
<path d="M4.31972 5.18228C4.79671 5.18228 5.18339 4.79561 5.18339 4.31862C5.18339 3.84163 4.79671 3.45496 4.31972 3.45496C3.84273 3.45496 3.45605 3.84163 3.45605 4.31862C3.45605 4.79561 3.84273 5.18228 4.31972 5.18228Z" fill="black"/>
<path d="M7.77284 5.18228C8.24983 5.18228 8.63651 4.79561 8.63651 4.31862C8.63651 3.84163 8.24983 3.45496 7.77284 3.45496C7.29586 3.45496 6.90918 3.84163 6.90918 4.31862C6.90918 4.79561 7.29586 5.18228 7.77284 5.18228Z" fill="black"/>
<path d="M11.2299 5.18228C11.7069 5.18228 12.0935 4.79561 12.0935 4.31862C12.0935 3.84163 11.7069 3.45496 11.2299 3.45496C10.7529 3.45496 10.3662 3.84163 10.3662 4.31862C10.3662 4.79561 10.7529 5.18228 11.2299 5.18228Z" fill="black"/>
<path d="M34.5455 0H3.45457C1.55017 0 0 1.54928 0 3.45457V34.5455C0 36.4507 1.55017 38.0001 3.45457 38.0001H34.5455C36.4499 38.0001 38.0001 36.4508 38.0001 34.5455V3.45457C38 1.54928 36.4499 0 34.5455 0ZM36.2727 34.5455C36.2727 35.4977 35.4985 36.2727 34.5455 36.2727H3.45457C2.50152 36.2727 1.72733 35.4977 1.72733 34.5455V8.6364H36.2727V34.5455ZM36.2727 6.90907H1.72725V3.45457C1.72725 2.50241 2.50152 1.72733 3.45449 1.72733H34.5454C35.4985 1.72733 36.2727 2.50241 36.2727 3.45457V6.90907H36.2727Z" fill="black"/>
<path d="M10.1546 25.0198L11.8094 25.4339L10.9305 26.8964C10.7264 27.2363 10.7804 27.6715 11.0604 27.9515L13.5046 30.394C13.7863 30.6749 14.2215 30.7263 14.5605 30.5239L16.0213 29.6468L16.4346 31.3015C16.5308 31.6853 16.8765 31.9552 17.2729 31.9552H20.7274C21.1238 31.9552 21.4696 31.6853 21.5657 31.3015L21.979 29.6468L23.4398 30.5239C23.7788 30.7263 24.214 30.6749 24.4957 30.394L26.9382 27.9515C27.2182 27.6715 27.2722 27.2363 27.0681 26.8964L26.191 25.4339L27.8458 25.0198C28.2304 24.9236 28.5002 24.5787 28.5002 24.1823V20.7278C28.5002 20.3314 28.2304 19.9865 27.8458 19.8903L26.191 19.4762L27.0681 18.0137C27.2722 17.6738 27.2182 17.2386 26.9382 16.9586L24.4957 14.5161C24.214 14.2335 23.7788 14.1838 23.4398 14.3862L21.979 15.2633L21.5657 13.6086C21.4696 13.2249 21.1238 12.9551 20.7274 12.9551H17.2728C16.8764 12.9551 16.5306 13.2249 16.4345 13.6087L16.0212 15.2635L14.5605 14.3864C14.2214 14.184 13.7862 14.2338 13.5045 14.5163L11.0603 16.9588C10.7803 17.2387 10.7263 17.6739 10.9304 18.0138L11.8092 19.4763L10.1544 19.8905C9.76986 19.9866 9.5 20.3316 9.5 20.728V24.1825C9.50008 24.5787 9.77002 24.9237 10.1546 25.0198ZM11.2274 21.4017L12.7101 21.0306C12.9935 20.9598 13.2213 20.7514 13.3174 20.4757C13.3933 20.2555 13.4776 20.0405 13.5805 19.8322C13.7071 19.569 13.6936 19.2603 13.5434 19.0099L12.759 17.7035L14.2485 16.214L15.5541 16.9984C15.8054 17.1485 16.1141 17.1621 16.3773 17.0347C16.5864 16.9327 16.8023 16.8483 17.0233 16.7716C17.2982 16.6754 17.5057 16.4477 17.5765 16.166L17.9476 14.6825H20.0527L20.4238 16.166C20.4946 16.4477 20.7021 16.6755 20.977 16.7716C21.198 16.8483 21.4139 16.9327 21.623 17.0347C21.8845 17.1613 22.1949 17.1468 22.4462 16.9984L23.7518 16.2149L25.2396 17.7035L24.4569 19.0099C24.3067 19.2604 24.2932 19.569 24.4198 19.8322C24.5227 20.0422 24.607 20.2589 24.6846 20.4807C24.7808 20.754 25.0085 20.9606 25.2902 21.0306L26.7729 21.4017V23.5085L25.2902 23.8796C25.0085 23.9496 24.7807 24.1562 24.6846 24.4295C24.607 24.6513 24.5227 24.8681 24.4198 25.078C24.2932 25.3412 24.3067 25.6499 24.4569 25.9003L25.2396 27.2067L23.7518 28.6953L22.4462 27.9117C22.1966 27.7607 21.8862 27.7473 21.623 27.8755C21.4139 27.9775 21.198 28.0619 20.977 28.1386C20.7021 28.2348 20.4946 28.4625 20.4238 28.7442L20.0527 30.2277H17.9476L17.5765 28.7442C17.5057 28.4625 17.2982 28.2347 17.0233 28.1386C16.8023 28.0619 16.5864 27.9775 16.3773 27.8755C16.1124 27.7464 15.8054 27.7607 15.5541 27.9117L14.2485 28.6961L12.759 27.2067L13.5434 25.9003C13.6936 25.6498 13.7071 25.3412 13.5805 25.078C13.4776 24.8697 13.3933 24.6547 13.3174 24.4345C13.2212 24.1587 12.9935 23.9504 12.7101 23.8796L11.2274 23.5085V21.4017Z" fill="black"/>
<path d="M18.9998 26.7729C21.3816 26.7729 23.318 24.8356 23.318 22.4547C23.318 20.0738 21.3815 18.1365 18.9998 18.1365C16.6181 18.1365 14.6816 20.0738 14.6816 22.4546C14.6816 24.8355 16.618 26.7729 18.9998 26.7729ZM18.9998 19.8637C20.4285 19.8637 21.5907 21.0259 21.5907 22.4546C21.5907 23.8834 20.4285 25.0456 18.9998 25.0456C17.5711 25.0456 16.4089 23.8834 16.4089 22.4546C16.4089 21.0259 17.5711 19.8637 18.9998 19.8637Z" fill="black"/>
</g>
<defs>
<clipPath id="clip0">
<rect width="38" height="38" fill="white"/>
</clipPath>
</defs>
</svg>
