<svg width="32" height="31" viewBox="0 0 32 31" fill="none" xmlns="http://www.w3.org/2000/svg">
<g clip-path="url(#clip0)">
<path d="M31.5 5.88806C30.3472 6.39375 29.1188 6.72894 27.8381 6.89169C29.1556 6.10506 30.1612 4.86894 30.6339 3.379C29.4056 4.11137 28.0493 4.62869 26.6039 4.91738C25.4376 3.67544 23.7752 2.90625 21.9617 2.90625C18.4432 2.90625 15.6106 5.76213 15.6106 9.26319C15.6106 9.76694 15.6532 10.2513 15.7578 10.7124C10.4743 10.4547 5.79906 7.92244 2.65837 4.06488C2.11006 5.01619 1.78844 6.10506 1.78844 7.27725C1.78844 9.47825 2.92188 11.4293 4.61137 12.5589C3.59031 12.5395 2.58862 12.2431 1.74 11.7761C1.74 11.7955 1.74 11.8207 1.74 11.8459C1.74 14.9342 3.94294 17.4995 6.83175 18.0904C6.31444 18.2319 5.75062 18.2997 5.1655 18.2997C4.75862 18.2997 4.34787 18.2764 3.96231 18.1912C4.78575 20.708 7.12238 22.5583 9.90075 22.6184C7.7385 24.3098 4.99306 25.3289 2.02094 25.3289C1.49975 25.3289 0.999875 25.3057 0.5 25.2417C3.31519 27.0572 6.65156 28.0938 10.2495 28.0938C21.9442 28.0938 28.338 18.4062 28.338 10.0091C28.338 9.72819 28.3283 9.45694 28.3147 9.18763C29.5761 8.2925 30.6359 7.17456 31.5 5.88806Z" fill="#181818"/>
</g>
<defs>
<clipPath id="clip0">
<rect width="31" height="31" fill="white" transform="translate(0.5)"/>
</clipPath>
</defs>
</svg>
