<svg width="38" height="38" viewBox="0 0 38 38" fill="none" xmlns="http://www.w3.org/2000/svg">
<g opacity="0.3">
<path d="M0 2.1853V35.8143H38V2.1853H0ZM25.1899 4.41187L21.0005 9.46661H2.22656V4.41187H25.1899ZM35.7734 33.5877H2.22656V11.6932H22.047L28.0819 4.41187H35.7734V33.5877Z" fill="#181818"/>
<path d="M4.77539 5.82935H7.00195V8.0683H4.77539V5.82935Z" fill="#181818"/>
<path d="M8.88086 5.82935H11.1074V8.0683H8.88086V5.82935Z" fill="#181818"/>
<path d="M12.9883 5.82935H15.2148V8.0683H12.9883V5.82935Z" fill="#181818"/>
<path d="M15.1856 24.1582C15.1856 25.2018 14.3366 26.0508 13.293 26.0508C12.2494 26.0508 11.4004 25.2018 11.4004 24.1582V17.2188H9.17383V24.1582C9.17383 26.4295 11.0217 28.2773 13.293 28.2773C15.5643 28.2773 17.4121 26.4295 17.4121 24.1582V17.2188H15.1856V24.1582Z" fill="#181818"/>
<path d="M25.8211 17.1816L24.0037 20.4546L22.1865 17.1816H19.6396L22.7303 22.748L19.6396 28.3145H22.1865L24.0037 25.0415L25.8211 28.3145H28.3679L25.2772 22.748L28.3679 17.1816H25.8211Z" fill="#181818"/>
</g>
</svg>
