<svg width="44" height="44" viewBox="0 0 44 44" fill="none" xmlns="http://www.w3.org/2000/svg">
<g opacity="0.3">
<path d="M43.6264 32.8285H41.5944V10.0451C41.5944 8.49198 40.3083 7.39038 38.7555 7.39038H5.20359C3.64975 7.39038 2.40625 8.49163 2.40625 10.0451V32.8282H0.332017C0.142243 32.8282 0 32.8103 0 33.0001V33.3202C0 35.0436 1.38958 36.6097 3.11223 36.6097H40.8451C42.5688 36.6097 44 35.0436 44 33.3202V33.0001C44.0004 32.8107 43.8162 32.8285 43.6264 32.8285ZM21.4945 8.4469C21.7489 8.18897 22.2092 8.18897 22.4636 8.4469C22.594 8.57376 22.6663 8.7527 22.6663 8.93164C22.6663 9.11373 22.594 9.28917 22.4636 9.41953C22.336 9.54675 22.1609 9.61874 21.9792 9.61874C21.7975 9.61874 21.6217 9.54675 21.4945 9.41953C21.3634 9.28882 21.2914 9.11338 21.2914 8.93164C21.2918 8.74921 21.3637 8.57376 21.4945 8.4469ZM39.5314 31.4533H4.46861V10.4844H39.5314V31.4533Z" fill="black"/>
<path d="M24.4762 17.9238C24.3974 17.8766 24.3102 17.8453 24.2194 17.8318C24.1286 17.8183 24.0361 17.8228 23.947 17.8451C23.8579 17.8674 23.7742 17.9069 23.7004 17.9616C23.6266 18.0162 23.5644 18.0849 23.5172 18.1636L19.3232 25.1534C19.2279 25.3124 19.1995 25.5027 19.2445 25.6826C19.2895 25.8624 19.404 26.017 19.563 26.1124C19.722 26.2078 19.9123 26.2361 20.0922 26.1912C20.272 26.1462 20.4266 26.0316 20.522 25.8727L24.7159 18.8828C24.7631 18.8041 24.7944 18.7169 24.8079 18.6261C24.8214 18.5353 24.8169 18.4427 24.7947 18.3537C24.7724 18.2646 24.7328 18.1808 24.6782 18.1071C24.6235 18.0333 24.5549 17.9711 24.4762 17.9238Z" fill="black"/>
<path d="M27.8074 18.0862C27.7501 18.0146 27.6791 17.9549 27.5987 17.9106C27.5183 17.8663 27.4299 17.8384 27.3387 17.8282C27.1544 17.8078 26.9695 17.8614 26.8248 17.9773C26.68 18.0931 26.5872 18.2618 26.5668 18.4461C26.5463 18.6303 26.5999 18.8152 26.7158 18.96L29.1622 22.018L26.7158 25.0761C26.5999 25.2208 26.5463 25.4057 26.5668 25.59C26.5872 25.7743 26.68 25.9429 26.8248 26.0588C26.9695 26.1746 27.1544 26.2282 27.3387 26.2078C27.523 26.1874 27.6916 26.0946 27.8074 25.9498L30.6034 22.4549C30.7026 22.3309 30.7567 22.1768 30.7567 22.018C30.7567 21.8592 30.7026 21.7051 30.6034 21.5812L27.8074 18.0862Z" fill="black"/>
<path d="M16.2305 25.9498C16.3464 26.0946 16.515 26.1874 16.6993 26.2078C16.8836 26.2282 17.0685 26.1746 17.2132 26.0588C17.358 25.9429 17.4508 25.7743 17.4712 25.59C17.4916 25.4057 17.438 25.2208 17.3222 25.0761L14.8757 22.018L17.3222 18.96C17.3795 18.8883 17.4222 18.806 17.4478 18.7178C17.4734 18.6297 17.4813 18.5373 17.4712 18.4461C17.4611 18.3548 17.4331 18.2664 17.3888 18.186C17.3446 18.1056 17.2849 18.0346 17.2132 17.9773C17.1415 17.9199 17.0593 17.8772 16.9711 17.8516C16.8829 17.8261 16.7906 17.8181 16.6993 17.8282C16.6081 17.8383 16.5197 17.8663 16.4393 17.9106C16.3588 17.9549 16.2879 18.0146 16.2305 18.0862L13.4346 21.5812C13.3353 21.7051 13.2812 21.8592 13.2812 22.018C13.2812 22.1768 13.3353 22.3309 13.4346 22.4549L16.2305 25.9498Z" fill="black"/>
</g>
</svg>
